<svg xmlns="http://www.w3.org/2000/svg" height="40px" viewBox="0 -960 960 960" width="40px" fill="#75FBFD"><path d="M40-416.67v-66.66h160v66.66H40Zm218.67-208-113.34-113 47-46.66 113 113-46.66 46.66Zm-49.5 408.74q-12.5-12.59-12.5-30.83t12.59-30.74q12.59-12.5 30.83-12.5t30.74 12.59q12.5 12.6 12.5 30.84 0 18.24-12.59 30.74t-30.83 12.5q-18.24 0-30.74-12.6Zm77.5-200.74V-450q0-80.23 56.57-136.78t136.83-56.55q80.26 0 136.76 56.55 56.5 56.55 56.5 136.78v33.33h-66.66V-450q0-52.78-36.92-89.72-36.93-36.95-89.67-36.95-52.75 0-89.75 36.95-37 36.94-37 89.72v33.33h-66.66Zm42.5 364.08q-12.5-12.6-12.5-30.84 0-18.24 12.59-30.74t30.83-12.5q18.24 0 30.74 12.6 12.5 12.59 12.5 30.83T390.74-52.5Q378.15-40 359.91-40t-30.74-12.59Zm120-163.34q-12.5-12.59-12.5-30.83t12.59-30.74q12.59-12.5 30.83-12.5t30.74 12.59q12.5 12.6 12.5 30.84 0 18.24-12.59 30.74t-30.83 12.5q-18.24 0-30.74-12.6ZM446.67-730v-160h66.66v160h-66.66Zm122.5 677.41q-12.5-12.6-12.5-30.84 0-18.24 12.59-30.74t30.83-12.5q18.24 0 30.74 12.6 12.5 12.59 12.5 30.83T630.74-52.5Q618.15-40 599.91-40t-30.74-12.59ZM700.67-624l-47-46.67 114-113.66 46.66 46.66L700.67-624Zm-11.5 408.07q-12.5-12.59-12.5-30.83t12.59-30.74q12.59-12.5 30.83-12.5t30.74 12.59q12.5 12.6 12.5 30.84 0 18.24-12.59 30.74t-30.83 12.5q-18.24 0-30.74-12.6ZM760-416.67v-66.66h160v66.66H760Zm-280 0Z"/></svg>